<svg xmlns="http://www.w3.org/2000/svg" xmlns:xlink="http://www.w3.org/1999/xlink" contentStyleType="text/css" height="800px" preserveAspectRatio="none" style="width:582px;height:800px;background:#FFFFFF;" version="1.1" viewBox="0 0 582 800" width="582.8125px" zoomAndPan="magnify"><defs/><g><!--class Aluno--><g id="elem_Aluno"><rect codeLine="2" fill="#F1F1F1" height="329.6387" id="Aluno" rx="3.9063" ry="3.9063" style="stroke:#181818;stroke-width:0.78125;" width="458.4503" x="62.9219" y="10.9375"/><ellipse cx="254.4296" cy="35.9375" fill="#ADD1B2" rx="17.1875" ry="17.1875" style="stroke:#181818;stroke-width:1.5625;"/><path d="M259.0683,44.751 Q258.1649,45.2148 257.164,45.4346 Q256.163,45.6787 255.0644,45.6787 Q251.1581,45.6787 249.0829,43.1152 Q247.0321,40.5273 247.0321,35.6445 Q247.0321,30.7617 249.0829,28.1738 Q251.1581,25.5859 255.0644,25.5859 Q256.163,25.5859 257.164,25.8301 Q258.1894,26.0742 259.0683,26.5381 L259.0683,30.7861 Q258.0917,29.8828 257.164,29.4678 Q256.2362,29.0283 255.2597,29.0283 Q253.1601,29.0283 252.0858,30.7129 Q251.0116,32.373 251.0116,35.6445 Q251.0116,38.916 252.0858,40.6006 Q253.1601,42.2607 255.2597,42.2607 Q256.2362,42.2607 257.164,41.8457 Q258.0917,41.4063 259.0683,40.5029 L259.0683,44.751 Z " fill="#000000"/><text fill="#000000" font-family="sans-serif" font-size="21.875" lengthAdjust="spacing" textLength="62.1536" x="286.4608" y="43.5104">Aluno</text><line style="stroke:#181818;stroke-width:0.78125;" x1="64.4844" x2="519.8097" y1="60.9375" y2="60.9375"/><rect fill="none" height="9.375" style="stroke:#C82930;stroke-width:1.5625;" width="9.375" x="75.4219" y="77.5757"/><text fill="#000000" font-family="sans-serif" font-size="21.875" lengthAdjust="spacing" textLength="141.6214" x="94.1719" y="87.4924">nome: String</text><rect fill="none" height="9.375" style="stroke:#C82930;stroke-width:1.5625;" width="9.375" x="75.4219" y="103.0396"/><text fill="#000000" font-family="sans-serif" font-size="21.875" lengthAdjust="spacing" textLength="183.342" x="94.1719" y="112.9562">matricula: String</text><rect fill="none" height="9.375" style="stroke:#C82930;stroke-width:1.5625;" width="9.375" x="75.4219" y="128.5034"/><text fill="#000000" font-family="sans-serif" font-size="21.875" lengthAdjust="spacing" textLength="148.1155" x="94.1719" y="138.4201">notas[] : float</text><line style="stroke:#181818;stroke-width:0.78125;" x1="64.4844" x2="519.8097" y1="149.8291" y2="149.8291"/><ellipse cx="80.1094" cy="171.1548" fill="#84BE84" rx="4.6875" ry="4.6875" style="stroke:#038048;stroke-width:1.5625;"/><text fill="#000000" font-family="sans-serif" font-size="21.875" lengthAdjust="spacing" textLength="402.1881" x="94.1719" y="176.384">Aluno (nome : String, matricula : int)</text><ellipse cx="80.1094" cy="196.6187" fill="#84BE84" rx="4.6875" ry="4.6875" style="stroke:#038048;stroke-width:1.5625;"/><text fill="#000000" font-family="sans-serif" font-size="21.875" lengthAdjust="spacing" textLength="197.11" x="94.1719" y="201.8478">getNome(): String</text><ellipse cx="80.1094" cy="222.0825" fill="#84BE84" rx="4.6875" ry="4.6875" style="stroke:#038048;stroke-width:1.5625;"/><text fill="#000000" font-family="sans-serif" font-size="21.875" lengthAdjust="spacing" textLength="317.2516" x="94.1719" y="227.3117">setNome(nome: String): void</text><ellipse cx="80.1094" cy="247.5464" fill="#84BE84" rx="4.6875" ry="4.6875" style="stroke:#038048;stroke-width:1.5625;"/><text fill="#000000" font-family="sans-serif" font-size="21.875" lengthAdjust="spacing" textLength="233.8959" x="94.1719" y="252.7756">getMatricula(): String</text><ellipse cx="80.1094" cy="273.0103" fill="#84BE84" rx="4.6875" ry="4.6875" style="stroke:#038048;stroke-width:1.5625;"/><text fill="#000000" font-family="sans-serif" font-size="21.875" lengthAdjust="spacing" textLength="417.8253" x="94.1719" y="278.2394">setNotas(index : int, nota : float): void</text><ellipse cx="80.1094" cy="298.4741" fill="#84BE84" rx="4.6875" ry="4.6875" style="stroke:#038048;stroke-width:1.5625;"/><text fill="#000000" font-family="sans-serif" font-size="21.875" lengthAdjust="spacing" textLength="148.671" x="94.1719" y="303.7033">media(): float</text><ellipse cx="80.1094" cy="323.938" fill="#84BE84" rx="4.6875" ry="4.6875" style="stroke:#038048;stroke-width:1.5625;"/><text fill="#000000" font-family="sans-serif" font-size="21.875" lengthAdjust="spacing" textLength="183.9188" x="94.1719" y="329.1672">toString(): String</text></g><!--class Turma--><g id="elem_Turma"><rect codeLine="16" fill="#F1F1F1" height="355.1025" id="Turma" rx="3.9063" ry="3.9063" style="stroke:#181818;stroke-width:0.78125;" width="562.41" x="10.9375" y="434.3125"/><ellipse cx="250.0351" cy="459.3125" fill="#ADD1B2" rx="17.1875" ry="17.1875" style="stroke:#181818;stroke-width:1.5625;"/><path d="M254.6738,468.126 Q253.7704,468.5898 252.7695,468.8096 Q251.7685,469.0537 250.6699,469.0537 Q246.7636,469.0537 244.6884,466.4902 Q242.6376,463.9023 242.6376,459.0195 Q242.6376,454.1367 244.6884,451.5488 Q246.7636,448.9609 250.6699,448.9609 Q251.7685,448.9609 252.7695,449.2051 Q253.7949,449.4492 254.6738,449.9131 L254.6738,454.1611 Q253.6972,453.2578 252.7695,452.8428 Q251.8417,452.4033 250.8652,452.4033 Q248.7656,452.4033 247.6913,454.0879 Q246.6171,455.748 246.6171,459.0195 Q246.6171,462.291 247.6913,463.9756 Q248.7656,465.6357 250.8652,465.6357 Q251.8417,465.6357 252.7695,465.2207 Q253.6972,464.7813 254.6738,463.8779 L254.6738,468.126 Z " fill="#000000"/><text fill="#000000" font-family="sans-serif" font-size="21.875" lengthAdjust="spacing" textLength="70.9335" x="282.0663" y="466.8854">Turma</text><line style="stroke:#181818;stroke-width:0.78125;" x1="12.5" x2="571.785" y1="484.3125" y2="484.3125"/><rect fill="none" height="9.375" style="stroke:#C82930;stroke-width:1.5625;" width="9.375" x="23.4375" y="500.9507"/><text fill="#000000" font-family="sans-serif" font-size="21.875" lengthAdjust="spacing" textLength="189.3341" x="42.1875" y="510.8674">disciplina : String</text><rect fill="none" height="9.375" style="stroke:#C82930;stroke-width:1.5625;" width="9.375" x="23.4375" y="526.4146"/><text fill="#000000" font-family="sans-serif" font-size="21.875" lengthAdjust="spacing" textLength="89.0915" x="42.1875" y="536.3312">cod : int</text><rect fill="none" height="9.375" style="stroke:#C82930;stroke-width:1.5625;" width="9.375" x="23.4375" y="551.8784"/><text fill="#000000" font-family="sans-serif" font-size="21.875" lengthAdjust="spacing" textLength="172.4899" x="42.1875" y="561.7951">alunos : Aluno[]</text><rect fill="none" height="9.375" style="stroke:#C82930;stroke-width:1.5625;" width="9.375" x="23.4375" y="577.3423"/><text fill="#000000" font-family="sans-serif" font-size="21.875" lengthAdjust="spacing" textLength="175.2563" x="42.1875" y="587.259">capacidade : int</text><rect fill="none" height="9.375" style="stroke:#C82930;stroke-width:1.5625;" width="9.375" x="23.4375" y="602.8062"/><text fill="#000000" font-family="sans-serif" font-size="21.875" lengthAdjust="spacing" textLength="169.072" x="42.1875" y="612.7228">qtd_alunos : int</text><line style="stroke:#181818;stroke-width:0.78125;" x1="12.5" x2="571.785" y1="624.1318" y2="624.1318"/><ellipse cx="28.125" cy="645.4575" fill="#84BE84" rx="4.6875" ry="4.6875" style="stroke:#038048;stroke-width:1.5625;"/><text fill="#000000" font-family="sans-serif" font-size="21.875" lengthAdjust="spacing" textLength="521.785" x="42.1875" y="650.6867">Turma(nome: String, cod : int, capacidade : int)</text><ellipse cx="28.125" cy="670.9214" fill="#84BE84" rx="4.6875" ry="4.6875" style="stroke:#038048;stroke-width:1.5625;"/><text fill="#000000" font-family="sans-serif" font-size="21.875" lengthAdjust="spacing" textLength="215.535" x="42.1875" y="676.1506">lancarNotas() : void</text><ellipse cx="28.125" cy="696.3853" fill="#84BE84" rx="4.6875" ry="4.6875" style="stroke:#038048;stroke-width:1.5625;"/><text fill="#000000" font-family="sans-serif" font-size="21.875" lengthAdjust="spacing" textLength="193.5852" x="42.1875" y="701.6144">verAlunos() : void</text><ellipse cx="28.125" cy="721.8491" fill="#84BE84" rx="4.6875" ry="4.6875" style="stroke:#038048;stroke-width:1.5625;"/><text fill="#000000" font-family="sans-serif" font-size="21.875" lengthAdjust="spacing" textLength="236.2778" x="42.1875" y="727.0783">verAprovados() : void</text><ellipse cx="28.125" cy="747.313" fill="#84BE84" rx="4.6875" ry="4.6875" style="stroke:#038048;stroke-width:1.5625;"/><text fill="#000000" font-family="sans-serif" font-size="21.875" lengthAdjust="spacing" textLength="245.5917" x="42.1875" y="752.5422">verAlunosFinal() : void</text><ellipse cx="28.125" cy="772.7769" fill="#84BE84" rx="4.6875" ry="4.6875" style="stroke:#038048;stroke-width:1.5625;"/><text fill="#000000" font-family="sans-serif" font-size="21.875" lengthAdjust="spacing" textLength="377.6108" x="42.1875" y="778.006">adicionarAluno(Aluno aluno) : void</text></g><!--link Aluno to Turma--><g id="link_Aluno_Turma"><path codeLine="30" d="M292.1406,341.0156 C292.1406,371.4219 292.1406,384.5625 292.1406,415.3438 " fill="none" id="Aluno-to-Turma" style="stroke:#181818;stroke-width:1.5625;"/><polygon fill="none" points="292.1406,434.0938,298.3906,424.7188,292.1406,415.3438,285.8906,424.7188,292.1406,434.0938" style="stroke:#181818;stroke-width:1.5625;"/><text fill="#000000" font-family="sans-serif" font-size="20.3125" lengthAdjust="spacing" textLength="35.9932" x="254.9973" y="371.7678">0..*</text><text fill="#000000" font-family="sans-serif" font-size="20.3125" lengthAdjust="spacing" textLength="12.9234" x="279.2348" y="416.7865">1</text></g><!--SRC=[TL6nReCm5DpvYYScA10bGvTiNRgrIxj54NgotUYfngQsGPMg_7iTFqX0JHTaplVktPtz9vaU7NOWUuBTupOJ6hs79pqO-vC1D61if_Rm5XoPKm8wZ6SnQ5oXnWRqXoFiuKDR315hs_YfM0gAYmpC4_LD969aGfce9nLU8wqe5yeL-0bT6ecCqPASfrvcjNkZqLT1HgflNbKdgxFFfL2d92M5EK45mRBQGlUSJHsz3wv3xaYI5zHhCWYhKeILl3JzuQK97u5KoU785EnHa4If5iol8Dihcy6fpRHqLKLzsrB_KUDUDHg1ZfieOP5uL2vvkGFtpeuexNy3pp6hNj-X947M83CAVlUKuaexHoBZ-NQpUSYXQU9nbwTKlm00]--></g></svg>